<mxfile host="Electron" agent="Mozilla/5.0 (Windows NT 10.0; Win64; x64) AppleWebKit/537.36 (KHTML, like Gecko) draw.io/25.0.2 Chrome/128.0.6613.186 Electron/32.2.5 Safari/537.36" version="25.0.2">
  <diagram name="Página-1" id="SXRwOfWVpEJ0-Aoffvyc">
    <mxGraphModel dx="1358" dy="3000" grid="1" gridSize="14" guides="1" tooltips="1" connect="1" arrows="1" fold="1" page="1" pageScale="1" pageWidth="827" pageHeight="1169" background="none" math="0" shadow="1">
      <root>
        <mxCell id="0" />
        <mxCell id="1" parent="0" />
        <mxCell id="jIfEn-DtUseTwL8zUkop-15" value="" style="edgeStyle=orthogonalEdgeStyle;rounded=0;orthogonalLoop=1;jettySize=auto;html=1;labelBackgroundColor=none;strokeColor=#457B9D;fontColor=default;" edge="1" parent="1" source="jIfEn-DtUseTwL8zUkop-1" target="jIfEn-DtUseTwL8zUkop-7">
          <mxGeometry relative="1" as="geometry" />
        </mxCell>
        <mxCell id="jIfEn-DtUseTwL8zUkop-1" value="&lt;font style=&quot;font-size: 18px;&quot;&gt;&lt;b&gt;INICIO&lt;/b&gt;&lt;/font&gt;" style="rounded=0;whiteSpace=wrap;html=1;labelBackgroundColor=none;fillColor=#A8DADC;strokeColor=#457B9D;fontColor=#1D3557;" vertex="1" parent="1">
          <mxGeometry x="354" y="-2324" width="120" height="60" as="geometry" />
        </mxCell>
        <mxCell id="jIfEn-DtUseTwL8zUkop-13" value="" style="edgeStyle=orthogonalEdgeStyle;rounded=0;orthogonalLoop=1;jettySize=auto;html=1;entryX=0.5;entryY=0;entryDx=0;entryDy=0;labelBackgroundColor=none;strokeColor=#457B9D;fontColor=default;" edge="1" parent="1" source="jIfEn-DtUseTwL8zUkop-7" target="jIfEn-DtUseTwL8zUkop-14">
          <mxGeometry relative="1" as="geometry">
            <mxPoint x="420" y="-2085" as="targetPoint" />
          </mxGeometry>
        </mxCell>
        <mxCell id="jIfEn-DtUseTwL8zUkop-7" value="NOTA 1 &amp;amp; NOTA 2" style="shape=manualInput;whiteSpace=wrap;html=1;rounded=0;labelBackgroundColor=none;fillColor=#A8DADC;strokeColor=#457B9D;fontColor=#1D3557;" vertex="1" parent="1">
          <mxGeometry x="336" y="-2240" width="168" height="70" as="geometry" />
        </mxCell>
        <mxCell id="jIfEn-DtUseTwL8zUkop-23" value="" style="edgeStyle=orthogonalEdgeStyle;rounded=0;orthogonalLoop=1;jettySize=auto;html=1;strokeColor=#457B9D;fontColor=#1D3557;fillColor=#A8DADC;" edge="1" parent="1" source="jIfEn-DtUseTwL8zUkop-14" target="jIfEn-DtUseTwL8zUkop-22">
          <mxGeometry relative="1" as="geometry" />
        </mxCell>
        <mxCell id="jIfEn-DtUseTwL8zUkop-14" value="MEDIA = (&lt;b&gt;n1+n2&lt;/b&gt;)" style="rounded=0;whiteSpace=wrap;html=1;labelBackgroundColor=none;fillColor=#A8DADC;strokeColor=#457B9D;fontColor=#1D3557;" vertex="1" parent="1">
          <mxGeometry x="360" y="-2072" width="120" height="60" as="geometry" />
        </mxCell>
        <mxCell id="jIfEn-DtUseTwL8zUkop-19" value="" style="line;strokeWidth=1;fillColor=none;align=left;verticalAlign=middle;spacingTop=-1;spacingLeft=3;spacingRight=3;rotatable=0;labelPosition=right;points=[];portConstraint=eastwest;strokeColor=#457B9D;rounded=0;labelBackgroundColor=none;fontColor=#1D3557;" vertex="1" parent="1">
          <mxGeometry x="426" y="-2038" width="40" height="8" as="geometry" />
        </mxCell>
        <mxCell id="jIfEn-DtUseTwL8zUkop-20" value="2" style="text;align=center;fontStyle=1;verticalAlign=middle;spacingLeft=3;spacingRight=3;strokeColor=none;rotatable=0;points=[[0,0.5],[1,0.5]];portConstraint=eastwest;html=1;rounded=0;labelBackgroundColor=none;fontColor=#1D3557;" vertex="1" parent="1">
          <mxGeometry x="406" y="-2038" width="80" height="26" as="geometry" />
        </mxCell>
        <mxCell id="jIfEn-DtUseTwL8zUkop-25" value="" style="edgeStyle=orthogonalEdgeStyle;rounded=0;orthogonalLoop=1;jettySize=auto;html=1;" edge="1" parent="1" source="jIfEn-DtUseTwL8zUkop-22" target="jIfEn-DtUseTwL8zUkop-24">
          <mxGeometry relative="1" as="geometry">
            <Array as="points">
              <mxPoint x="378" y="-1888" />
              <mxPoint x="378" y="-1902" />
            </Array>
          </mxGeometry>
        </mxCell>
        <mxCell id="jIfEn-DtUseTwL8zUkop-32" value="" style="edgeStyle=orthogonalEdgeStyle;rounded=0;orthogonalLoop=1;jettySize=auto;html=1;" edge="1" parent="1" source="jIfEn-DtUseTwL8zUkop-22" target="jIfEn-DtUseTwL8zUkop-31">
          <mxGeometry relative="1" as="geometry">
            <Array as="points">
              <mxPoint x="602" y="-1888" />
            </Array>
          </mxGeometry>
        </mxCell>
        <mxCell id="jIfEn-DtUseTwL8zUkop-22" value="MEDIA&amp;gt;=0&lt;br&gt;E&lt;br&gt;MEDIA&amp;lt;=4" style="rhombus;whiteSpace=wrap;html=1;fillColor=#A8DADC;strokeColor=#457B9D;fontColor=#1D3557;rounded=0;labelBackgroundColor=none;" vertex="1" parent="1">
          <mxGeometry x="380" y="-1942" width="110" height="108" as="geometry" />
        </mxCell>
        <mxCell id="jIfEn-DtUseTwL8zUkop-47" value="" style="edgeStyle=orthogonalEdgeStyle;rounded=0;orthogonalLoop=1;jettySize=auto;html=1;" edge="1" parent="1" source="jIfEn-DtUseTwL8zUkop-24" target="jIfEn-DtUseTwL8zUkop-46">
          <mxGeometry relative="1" as="geometry">
            <Array as="points">
              <mxPoint x="260" y="-1426" />
            </Array>
          </mxGeometry>
        </mxCell>
        <mxCell id="jIfEn-DtUseTwL8zUkop-24" value="&quot;REPROVADO&quot;" style="shape=document;whiteSpace=wrap;html=1;boundedLbl=1;fillColor=#A8DADC;strokeColor=#457B9D;fontColor=#1D3557;rounded=0;labelBackgroundColor=none;" vertex="1" parent="1">
          <mxGeometry x="200" y="-1942" width="120" height="80" as="geometry" />
        </mxCell>
        <mxCell id="jIfEn-DtUseTwL8zUkop-26" value="Sim" style="text;align=center;fontStyle=1;verticalAlign=middle;spacingLeft=3;spacingRight=3;strokeColor=none;rotatable=0;points=[[0,0.5],[1,0.5]];portConstraint=eastwest;html=1;" vertex="1" parent="1">
          <mxGeometry x="315" y="-1923" width="80" height="26" as="geometry" />
        </mxCell>
        <mxCell id="jIfEn-DtUseTwL8zUkop-35" value="" style="edgeStyle=orthogonalEdgeStyle;rounded=0;orthogonalLoop=1;jettySize=auto;html=1;" edge="1" parent="1" source="jIfEn-DtUseTwL8zUkop-31" target="jIfEn-DtUseTwL8zUkop-34">
          <mxGeometry relative="1" as="geometry" />
        </mxCell>
        <mxCell id="jIfEn-DtUseTwL8zUkop-38" value="" style="edgeStyle=orthogonalEdgeStyle;rounded=0;orthogonalLoop=1;jettySize=auto;html=1;" edge="1" parent="1" source="jIfEn-DtUseTwL8zUkop-31" target="jIfEn-DtUseTwL8zUkop-37">
          <mxGeometry relative="1" as="geometry">
            <Array as="points">
              <mxPoint x="840" y="-1793" />
            </Array>
          </mxGeometry>
        </mxCell>
        <mxCell id="jIfEn-DtUseTwL8zUkop-31" value="MEDIA &amp;gt; 4&lt;div&gt;E&lt;br&gt;MEDIA &amp;lt;= 6&lt;/div&gt;" style="rhombus;whiteSpace=wrap;html=1;fillColor=#A8DADC;strokeColor=#457B9D;fontColor=#1D3557;rounded=0;labelBackgroundColor=none;" vertex="1" parent="1">
          <mxGeometry x="536" y="-1848" width="132" height="109" as="geometry" />
        </mxCell>
        <mxCell id="jIfEn-DtUseTwL8zUkop-33" value="Não" style="text;align=center;fontStyle=1;verticalAlign=middle;spacingLeft=3;spacingRight=3;strokeColor=none;rotatable=0;points=[[0,0.5],[1,0.5]];portConstraint=eastwest;html=1;" vertex="1" parent="1">
          <mxGeometry x="492" y="-1911" width="80" height="26" as="geometry" />
        </mxCell>
        <mxCell id="jIfEn-DtUseTwL8zUkop-48" style="edgeStyle=orthogonalEdgeStyle;rounded=0;orthogonalLoop=1;jettySize=auto;html=1;" edge="1" parent="1" source="jIfEn-DtUseTwL8zUkop-34" target="jIfEn-DtUseTwL8zUkop-46">
          <mxGeometry relative="1" as="geometry" />
        </mxCell>
        <mxCell id="jIfEn-DtUseTwL8zUkop-34" value="&quot;RECUPERAÇÃO&quot;" style="shape=document;whiteSpace=wrap;html=1;boundedLbl=1;fillColor=#A8DADC;strokeColor=#457B9D;fontColor=#1D3557;rounded=0;labelBackgroundColor=none;" vertex="1" parent="1">
          <mxGeometry x="380" y="-1722" width="120" height="80" as="geometry" />
        </mxCell>
        <mxCell id="jIfEn-DtUseTwL8zUkop-36" value="Sim" style="text;align=center;fontStyle=1;verticalAlign=middle;spacingLeft=3;spacingRight=3;strokeColor=none;rotatable=0;points=[[0,0.5],[1,0.5]];portConstraint=eastwest;html=1;" vertex="1" parent="1">
          <mxGeometry x="462" y="-1815" width="80" height="26" as="geometry" />
        </mxCell>
        <mxCell id="jIfEn-DtUseTwL8zUkop-41" value="" style="edgeStyle=orthogonalEdgeStyle;rounded=0;orthogonalLoop=1;jettySize=auto;html=1;" edge="1" parent="1" source="jIfEn-DtUseTwL8zUkop-37" target="jIfEn-DtUseTwL8zUkop-40">
          <mxGeometry relative="1" as="geometry" />
        </mxCell>
        <mxCell id="jIfEn-DtUseTwL8zUkop-44" value="" style="edgeStyle=orthogonalEdgeStyle;rounded=0;orthogonalLoop=1;jettySize=auto;html=1;" edge="1" parent="1" source="jIfEn-DtUseTwL8zUkop-37" target="jIfEn-DtUseTwL8zUkop-43">
          <mxGeometry relative="1" as="geometry" />
        </mxCell>
        <mxCell id="jIfEn-DtUseTwL8zUkop-37" value="MEDIA &amp;gt; 6&lt;div&gt;E&lt;br&gt;MEDIA &amp;lt;=10&lt;/div&gt;" style="rhombus;whiteSpace=wrap;html=1;fillColor=#A8DADC;strokeColor=#457B9D;fontColor=#1D3557;rounded=0;labelBackgroundColor=none;" vertex="1" parent="1">
          <mxGeometry x="781" y="-1729.75" width="118" height="97.5" as="geometry" />
        </mxCell>
        <mxCell id="jIfEn-DtUseTwL8zUkop-39" value="Não" style="text;align=center;fontStyle=1;verticalAlign=middle;spacingLeft=3;spacingRight=3;strokeColor=none;rotatable=0;points=[[0,0.5],[1,0.5]];portConstraint=eastwest;html=1;" vertex="1" parent="1">
          <mxGeometry x="658" y="-1815" width="80" height="26" as="geometry" />
        </mxCell>
        <mxCell id="jIfEn-DtUseTwL8zUkop-49" style="edgeStyle=orthogonalEdgeStyle;rounded=0;orthogonalLoop=1;jettySize=auto;html=1;entryX=1;entryY=0.5;entryDx=0;entryDy=0;" edge="1" parent="1" source="jIfEn-DtUseTwL8zUkop-40" target="jIfEn-DtUseTwL8zUkop-46">
          <mxGeometry relative="1" as="geometry" />
        </mxCell>
        <mxCell id="jIfEn-DtUseTwL8zUkop-40" value="&quot;APROVADO&quot;" style="shape=document;whiteSpace=wrap;html=1;boundedLbl=1;fillColor=#A8DADC;strokeColor=#457B9D;fontColor=#1D3557;rounded=0;labelBackgroundColor=none;" vertex="1" parent="1">
          <mxGeometry x="582" y="-1721" width="120" height="80" as="geometry" />
        </mxCell>
        <mxCell id="jIfEn-DtUseTwL8zUkop-42" value="Sim" style="text;align=center;fontStyle=1;verticalAlign=middle;spacingLeft=3;spacingRight=3;strokeColor=none;rotatable=0;points=[[0,0.5],[1,0.5]];portConstraint=eastwest;html=1;" vertex="1" parent="1">
          <mxGeometry x="704" y="-1702" width="80" height="26" as="geometry" />
        </mxCell>
        <mxCell id="jIfEn-DtUseTwL8zUkop-50" style="edgeStyle=orthogonalEdgeStyle;rounded=0;orthogonalLoop=1;jettySize=auto;html=1;entryX=0.75;entryY=1;entryDx=0;entryDy=0;" edge="1" parent="1" source="jIfEn-DtUseTwL8zUkop-43" target="jIfEn-DtUseTwL8zUkop-46">
          <mxGeometry relative="1" as="geometry">
            <Array as="points">
              <mxPoint x="1038" y="-1372" />
              <mxPoint x="532" y="-1372" />
            </Array>
          </mxGeometry>
        </mxCell>
        <mxCell id="jIfEn-DtUseTwL8zUkop-43" value="&quot;INFORMAÇÃO INVÁLIDA&quot;&lt;div&gt;(ERRO)&lt;/div&gt;" style="shape=document;whiteSpace=wrap;html=1;boundedLbl=1;fillColor=#A8DADC;strokeColor=#457B9D;fontColor=#1D3557;rounded=0;labelBackgroundColor=none;" vertex="1" parent="1">
          <mxGeometry x="978" y="-1721" width="120" height="80" as="geometry" />
        </mxCell>
        <mxCell id="jIfEn-DtUseTwL8zUkop-45" value="Não" style="text;align=center;fontStyle=1;verticalAlign=middle;spacingLeft=3;spacingRight=3;strokeColor=none;rotatable=0;points=[[0,0.5],[1,0.5]];portConstraint=eastwest;html=1;" vertex="1" parent="1">
          <mxGeometry x="886" y="-1702" width="80" height="26" as="geometry" />
        </mxCell>
        <mxCell id="jIfEn-DtUseTwL8zUkop-46" value="FIM" style="whiteSpace=wrap;html=1;fillColor=#A8DADC;strokeColor=#457B9D;fontColor=#1D3557;rounded=0;labelBackgroundColor=none;" vertex="1" parent="1">
          <mxGeometry x="442" y="-1456" width="120" height="60" as="geometry" />
        </mxCell>
      </root>
    </mxGraphModel>
  </diagram>
</mxfile>
